<svg width="24" height="24" viewBox="0 0 24 24" fill="none" xmlns="http://www.w3.org/2000/svg">
<path d="M17.9971 9C17.9971 12.3137 15.3134 15 12 15C12 13.345 10.655 12 9 12H5.99712C3 12 0 10.3126 0 6C0 1.59384 3 0 5.99712 0H12C15 0 17.9971 1.8588 17.9971 6V9Z" fill="url(#paint0_linear_19_302)"/>
<path d="M19.4854 9.15955C19.3973 13.2187 16.0781 16.4999 12 16.4999H10.5V14.9999C10.5 14.1724 9.82608 13.4999 9 13.4999H6.14952C6.05568 13.9643 5.99712 14.4609 5.99712 14.9999V17.9999C5.99712 21.3136 8.68632 23.9999 12 23.9999C12 22.3418 13.345 20.9999 15 20.9999H17.9971C21 20.9999 24 19.3125 24 14.9999C24 11.3306 21.9113 9.62995 19.4854 9.15955Z" fill="url(#paint1_linear_19_302)"/>
<defs>
<linearGradient id="paint0_linear_19_302" x1="8.99856" y1="0" x2="8.99856" y2="15" gradientUnits="userSpaceOnUse">
<stop stop-color="#6121FB"/>
<stop offset="1" stop-color="#A76CF9"/>
</linearGradient>
<linearGradient id="paint1_linear_19_302" x1="14.9986" y1="9.15955" x2="14.9986" y2="23.9999" gradientUnits="userSpaceOnUse">
<stop stop-color="#6121FB"/>
<stop offset="1" stop-color="#A76CF9"/>
</linearGradient>
</defs>
</svg>
