<svg width="24" height="24" viewBox="0 0 24 24" fill="none" xmlns="http://www.w3.org/2000/svg">
<path d="M12 0C8.81712 0 5.7648 1.26468 3.5148 3.5148C1.2648 5.76492 0 8.81736 0 12C0 15.1826 1.26468 18.2352 3.5148 20.4852C5.76492 22.7352 8.81736 24 12 24C15.1826 24 18.2352 22.7353 20.4852 20.4852C22.7352 18.2351 24 15.1826 24 12C23.9963 8.81808 22.7306 5.7684 20.4816 3.5184C18.2316 1.26934 15.1819 0.0036 12 0ZM13.3847 13.8458H10.154V14.7693H13.846C14.356 14.7693 14.7694 15.1827 14.7694 15.6918C14.7694 16.2018 14.356 16.6152 13.846 16.6152H10.154V17.5387C10.154 18.0478 9.74059 18.4612 9.23059 18.4612C8.72059 18.4612 8.30808 18.0478 8.30808 17.5387V16.6152H7.38463C6.87463 16.6152 6.46118 16.2018 6.46118 15.6918C6.46118 15.1827 6.87463 14.7693 7.38463 14.7693H8.30808V13.8458H7.38463C6.87463 13.8458 6.46118 13.4324 6.46118 12.9233C6.46118 12.4133 6.87463 11.9999 7.38463 11.9999H8.30808V6.46116C8.30808 5.9521 8.72059 5.53865 9.23059 5.53865H13.3848C14.8688 5.53865 16.2403 6.3299 16.9819 7.6152C17.7244 8.90052 17.7244 10.4839 16.9819 11.7694C16.2403 13.0547 14.8687 13.8458 13.3847 13.8458Z" fill="url(#paint0_linear_19_269)"/>
<path d="M13.3849 7.38476H10.1543V12H13.3849C14.659 12 15.6921 10.9668 15.6921 9.69184C15.6921 8.41777 14.659 7.38476 13.3849 7.38476Z" fill="url(#paint1_linear_19_269)"/>
<defs>
<linearGradient id="paint0_linear_19_269" x1="12" y1="0" x2="12" y2="24" gradientUnits="userSpaceOnUse">
<stop stop-color="#6121FB"/>
<stop offset="1" stop-color="#A76CF9"/>
</linearGradient>
<linearGradient id="paint1_linear_19_269" x1="12.9232" y1="7.38464" x2="12.9232" y2="12" gradientUnits="userSpaceOnUse">
<stop stop-color="#6121FB"/>
<stop offset="1" stop-color="#A76CF9"/>
</linearGradient>
</defs>
</svg>
