<svg width="20" height="24" viewBox="0 0 20 24" fill="none" xmlns="http://www.w3.org/2000/svg">
<path d="M16.8801 0H4.55046C3.33685 0 2.27158 0.723128 2.27158 1.97662V6.54504C3.83585 5.38281 5.531 4.68687 7.48478 4.68687C12.1007 4.68687 15.8724 8.61858 15.8724 13.3854C15.8724 15.0764 15.4109 16.4225 14.5952 18.0378H17.7931C19.007 18.0378 20 16.9047 20 15.6512V3.26242L16.8801 0Z" fill="url(#paint0_linear_103_379)"/>
<path d="M13.4024 17.7651C14.2714 16.5135 14.7852 14.9819 14.7852 13.3278C14.7852 9.11853 11.4698 5.69403 7.39353 5.69403C3.316 5.69403 0 9.11853 0 13.3278C0 17.5368 3.31626 20.9613 7.39353 20.9613C8.58707 20.9613 9.71439 20.666 10.7134 20.145L14.4468 24L16.9437 21.4219L13.4024 17.7651ZM7.39353 18.5305C4.61513 18.5305 2.35397 16.1969 2.35397 13.3278C2.35397 10.4584 4.61513 8.12483 7.39353 8.12483C10.1706 8.12483 12.4305 10.4584 12.4305 13.3278C12.4308 16.1969 10.1706 18.5305 7.39353 18.5305Z" fill="url(#paint1_linear_103_379)"/>
<defs>
<linearGradient id="paint0_linear_103_379" x1="11.1358" y1="0" x2="11.1358" y2="18.0378" gradientUnits="userSpaceOnUse">
<stop stop-color="#6121FB"/>
<stop offset="1" stop-color="#A76CF9"/>
</linearGradient>
<linearGradient id="paint1_linear_103_379" x1="8.47184" y1="5.69403" x2="8.47184" y2="24" gradientUnits="userSpaceOnUse">
<stop stop-color="#6121FB"/>
<stop offset="1" stop-color="#A76CF9"/>
</linearGradient>
</defs>
</svg>
