<svg width="24" height="24" viewBox="0 0 24 24" fill="none" xmlns="http://www.w3.org/2000/svg">
<path d="M1.42948 0C0.647228 0 0.0012053 0.646095 0.0012053 1.42836L0 13.0169C0.410996 12.7361 0.903976 12.5721 1.42948 12.5721H6.00104C7.24369 12.5721 8.3622 13.3785 8.75515 14.5574L9.23606 16.0014H14.7648L15.2457 14.5574C15.6386 13.3785 16.7559 12.5721 17.9998 12.5721H22.5714C23.0969 12.5721 23.5886 12.7361 23.9996 13.0157V1.42963C23.9996 0.647329 23.3536 0.00126511 22.5714 0.00126511L1.42948 0ZM4.85723 4.00068H19.1424C19.2943 4.00068 19.4389 4.06095 19.5462 4.16823C19.6535 4.27551 19.7138 4.42015 19.7138 4.57203C19.7138 4.72391 19.6535 4.86855 19.5462 4.97583C19.4389 5.08311 19.2943 5.14338 19.1424 5.14338H4.85723C4.54145 5.14338 4.2859 4.88784 4.2859 4.57202C4.2859 4.25622 4.54143 4.00068 4.85723 4.00068ZM4.85723 8.57253H19.1424C19.2943 8.57253 19.4389 8.6328 19.5462 8.73887C19.6535 8.84615 19.7138 8.992 19.7138 9.14388C19.7138 9.29455 19.6535 9.4404 19.5462 9.54768C19.4389 9.65496 19.2943 9.71522 19.1424 9.71522H4.85723C4.54145 9.71522 4.2859 9.45848 4.2859 9.14387C4.2859 8.82807 4.54143 8.57253 4.85723 8.57253ZM1.42948 13.7146C0.647228 13.7146 0.0012053 14.3607 0.0012053 15.143V22.5716C0.0012053 23.3539 0.647259 24 1.42948 24H22.5717C23.354 24 24 23.3539 24 22.5716V15.143C24 14.3607 23.3539 13.7146 22.5717 13.7146H18.0002C17.2444 13.7146 16.5695 14.2016 16.3308 14.9188L15.7294 16.722C15.6438 16.9764 15.4112 17.1439 15.1424 17.1439H8.85805C8.59048 17.1439 8.35665 16.9764 8.27229 16.722L7.67085 14.9188C7.4322 14.2028 6.75605 13.7146 6.0003 13.7146H1.42948Z" fill="url(#paint0_linear_19_338)"/>
<defs>
<linearGradient id="paint0_linear_19_338" x1="12" y1="0" x2="12" y2="24" gradientUnits="userSpaceOnUse">
<stop stop-color="#6121FB"/>
<stop offset="1" stop-color="#A76CF9"/>
</linearGradient>
</defs>
</svg>
