<svg width="16" height="16" viewBox="0 0 16 16" fill="none" xmlns="http://www.w3.org/2000/svg">
<g opacity="0.5" clip-path="url(#clip0_1_805)">
<path d="M3.86188 7.56099L11.2623 0.180994C11.5048 -0.0606608 11.8974 -0.0602546 12.1394 0.182244C12.3813 0.424712 12.3807 0.817492 12.1382 1.05933L5.17822 8.00009L12.1384 14.9408C12.3809 15.1827 12.3815 15.5752 12.1397 15.8177C12.0183 15.9393 11.8594 16.0001 11.7004 16.0001C11.5418 16.0001 11.3835 15.9397 11.2624 15.819L3.86188 8.43915C3.7451 8.32296 3.67956 8.16483 3.67956 8.00009C3.67956 7.83534 3.74528 7.6774 3.86188 7.56099Z" fill="black"/>
</g>
<defs>
<clipPath id="clip0_1_805">
<rect width="16" height="16" fill="white" transform="matrix(-1 0 0 1 16 0)"/>
</clipPath>
</defs>
</svg>
