<svg width="22" height="22" viewBox="0 0 22 22" fill="none" xmlns="http://www.w3.org/2000/svg">
<path d="M19.5976 15.5036C18.2116 14.3321 17.4168 12.6198 17.4168 10.8057V8.25C17.4168 5.02425 15.0207 2.354 11.9168 1.90667V0.916667C11.9168 0.40975 11.5062 0 11.0002 0C10.4942 0 10.0835 0.40975 10.0835 0.916667V1.90667C6.97875 2.354 4.5835 5.02425 4.5835 8.25V10.8057C4.5835 12.6198 3.78875 14.3321 2.3945 15.5109C2.03791 15.8162 1.8335 16.2598 1.8335 16.7292C1.8335 17.6138 2.55308 18.3333 3.43766 18.3333H18.5627C19.4472 18.3333 20.1668 17.6138 20.1668 16.7292C20.1668 16.2598 19.9624 15.8162 19.5976 15.5036Z" fill="white"/>
<path d="M11.0002 22C12.6602 22 14.049 20.8166 14.368 19.25H7.63232C7.95132 20.8166 9.34007 22 11.0002 22Z" fill="white"/>
</svg>
