<svg width="20" height="20" viewBox="0 0 20 20" fill="none" xmlns="http://www.w3.org/2000/svg">
<g opacity="0.4">
<path d="M18.0864 7.27377C17.7217 5.88047 17.357 4.53371 16.9703 3.16333C16.6515 2.71473 15.8772 2.4781 15.3759 2.40774C11.7317 1.86413 8.31483 1.86413 4.69249 2.40774C4.14545 2.47901 3.41697 2.71473 3.05228 3.16333C2.66558 4.5338 2.30089 5.88047 1.93619 7.27377C1.75385 7.13215 0.455418 9.32948 0.455418 9.32948C0.227272 9.82559 0.0458053 10.4871 0.0458053 11.503C0.0458053 13.4637 0 15.4254 0 17.3623C0 17.7406 0.295979 18 0.660671 18H3.09819C3.46288 18 3.75886 17.7406 3.75886 17.3623V16.583H16.287V17.3623C16.287 17.7406 16.5829 18 16.9018 18H19.3851C19.704 18 20 17.7406 20 17.3623C20 15.4016 20 13.4399 19.9542 11.503C19.9542 10.4871 19.7718 9.80185 19.5446 9.32948C19.5446 9.32948 18.2691 7.10841 18.0867 7.27377H18.0864ZM4.10042 3.7069C8.01862 2.99792 12.0047 2.99792 15.8999 3.7069C16.1959 4.84074 16.5148 5.99833 16.8108 7.17974C12.3912 6.65987 7.631 6.65987 3.21149 7.15599C3.53038 5.99841 3.82647 4.81696 4.10042 3.7069ZM3.46266 12.6606C2.7791 12.6606 2.23294 12.0704 2.23294 11.3376C2.23294 10.6286 2.77998 10.0622 3.46266 10.0622C4.14622 10.0622 4.69238 10.6295 4.69238 11.3376C4.69238 12.0466 4.14534 12.6606 3.46266 12.6606ZM13.7357 14.645H6.3097C5.99081 14.645 5.74065 14.3855 5.74065 14.0548C5.74065 13.724 5.99083 13.4646 6.3097 13.4646H13.7357C14.0546 13.4646 14.3047 13.7241 14.3047 14.0548C14.3047 14.3855 14.0545 14.645 13.7357 14.645ZM16.5827 12.6606C15.8992 12.6606 15.3072 12.0704 15.3072 11.3376C15.3072 10.6286 15.8762 10.0622 16.5827 10.0622C17.2663 10.0622 17.8124 10.6295 17.8124 11.3376C17.8133 12.0466 17.2892 12.6606 16.5827 12.6606Z" fill="black"/>
<path d="M11.7309 4.08511C11.7309 3.75436 11.4807 3.4949 11.1618 3.4949H8.92964C8.61075 3.4949 8.3606 3.75438 8.3606 4.08511C8.3606 4.41586 8.61077 4.67531 8.92964 4.67531H11.1618C11.4807 4.67531 11.7309 4.41583 11.7309 4.08511Z" fill="black"/>
</g>
</svg>
