<svg width="20" height="20" viewBox="0 0 20 20" fill="none" xmlns="http://www.w3.org/2000/svg">
<path d="M10 0C4.48421 0 0 4.48421 0 10C0 15.5158 4.48421 20 10 20C15.5158 20 20 15.5158 20 10C20 4.48421 15.5158 0 10 0ZM13.9368 12.7579C13.7474 13.0316 13.4526 13.1789 13.1368 13.1789C12.9474 13.1789 12.7368 13.1158 12.5684 13.0105L9.43158 10.8C9.17895 10.6105 9.01053 10.3158 9.01053 10V4.71579C9.01053 4.16842 9.45263 3.72632 10 3.72632C10.5474 3.72632 10.9895 4.16842 10.9895 4.71579V9.49474L13.7053 11.4105C14.1474 11.7053 14.2526 12.3158 13.9368 12.7579Z" fill="#1736FD"/>
</svg>
