<svg width="14" height="14" viewBox="0 0 14 14" fill="none" xmlns="http://www.w3.org/2000/svg">
<path d="M12.7468 0.226299L7.00073 5.97298L1.25467 0.226299C1.11646 0.099819 0.934798 0.0315423 0.747512 0.0356924C0.560225 0.0398426 0.381762 0.1161 0.249298 0.248578C0.116834 0.381056 0.0405844 0.559539 0.0364347 0.746845C0.0322849 0.934152 0.100554 1.11584 0.227021 1.25405L5.97017 7.00073L0.225564 12.7459C0.155381 12.8128 0.0992778 12.8931 0.0605512 12.982C0.0218247 13.0709 0.00125639 13.1666 5.5782e-05 13.2635C-0.00114483 13.3605 0.0170465 13.4567 0.05356 13.5465C0.0900735 13.6364 0.144172 13.718 0.212677 13.7866C0.281181 13.8552 0.362709 13.9094 0.452467 13.946C0.542225 13.9827 0.638402 14.001 0.735345 14C0.832288 13.9989 0.92804 13.9785 1.01697 13.9399C1.10591 13.9012 1.18622 13.8453 1.25321 13.7752L7.00073 8.02994L12.7468 13.7766C12.885 13.9031 13.0667 13.9714 13.2539 13.9672C13.4412 13.9631 13.6197 13.8868 13.7522 13.7543C13.8846 13.6219 13.9609 13.4434 13.965 13.2561C13.9692 13.0688 13.9009 12.8871 13.7744 12.7489L8.02837 7.00219L13.7744 1.25405C13.8446 1.18716 13.9007 1.10691 13.9394 1.01803C13.9782 0.929139 13.9987 0.833406 13.9999 0.736454C14.0011 0.639503 13.983 0.543289 13.9464 0.45347C13.9099 0.36365 13.8558 0.282037 13.7873 0.213428C13.7188 0.144819 13.6373 0.0905991 13.5475 0.0539544C13.4578 0.0173097 13.3616 -0.00101957 13.2647 4.37493e-05C13.1677 0.00110707 13.072 0.0215417 12.983 0.0601463C12.8941 0.0987509 12.8138 0.154746 12.7468 0.224842V0.226299Z" fill="black"/>
</svg>
