<svg width="20" height="20" viewBox="0 0 20 20" fill="none" xmlns="http://www.w3.org/2000/svg">
<path d="M6.68798 13.4398C6.69779 13.4672 6.71545 13.4896 6.73801 13.5062C6.76058 13.5218 6.78805 13.5316 6.81748 13.5316H13.1837C13.2131 13.5316 13.2406 13.5218 13.2631 13.5062C13.2857 13.4896 13.3043 13.4672 13.3132 13.4398L13.5692 12.6987L13.7625 12.1411H6.23975L6.43988 12.7182L6.68907 13.4398H6.68798Z" fill="white"/>
<path d="M15.0447 0.573181V1.11418C15.0447 1.53018 15.3841 1.86804 15.802 1.86804H16.3456L15.0447 0.573181Z" fill="white"/>
<path d="M16.922 2.75182C16.922 2.72741 16.9161 2.703 16.9141 2.67859H15.8036C14.9373 2.67859 14.2319 1.97549 14.2319 1.11421V0.00878864C14.2074 0.00585928 14.1829 0.000976516 14.1583 0.000976516L3.83476 0C3.41978 0 3.08032 0.337884 3.08032 0.751914V11.3324H16.922L16.922 2.75182ZM5.07266 2.2245H10.6304C10.856 2.2245 11.0375 2.40516 11.0375 2.62976C11.0375 2.85435 10.856 3.03501 10.6304 3.03501H5.07266C4.84702 3.03501 4.66552 2.85338 4.66552 2.62976C4.66552 2.40516 4.84702 2.2245 5.07266 2.2245ZM14.9284 9.10792H5.07266C4.84702 9.10792 4.66552 8.92433 4.66552 8.70266C4.66552 8.47806 4.84702 8.29741 5.07266 8.29741H14.9284C15.154 8.29741 15.3355 8.47806 15.3355 8.70266C15.3355 8.92433 15.154 9.10792 14.9284 9.10792ZM14.9284 6.07007H5.07266C4.84702 6.07007 4.66552 5.88843 4.66552 5.66481C4.66552 5.44021 4.84702 5.25955 5.07266 5.25955H14.9284C15.154 5.25955 15.3355 5.44118 15.3355 5.66481C15.3355 5.88941 15.154 6.07007 14.9284 6.07007Z" fill="white"/>
<path d="M19.9999 19.3233V12.8178C19.9999 12.4448 19.6957 12.1421 19.321 12.1421H14.6237L14.0802 13.7045C13.9497 14.0853 13.5887 14.3422 13.1815 14.3422H6.81733C6.41019 14.3422 6.04916 14.0854 5.91869 13.7045L5.37517 12.1421L0.678888 12.1431C0.304119 12.1431 0 12.4458 0 12.8188V19.3242C0 19.6973 0.304119 20 0.678888 20H19.3211C19.6959 20 20 19.6973 20 19.3242L19.9999 19.3233ZM13.6249 16.9103C13.6249 17.2833 13.3208 17.5861 12.946 17.5861H7.05372C6.67895 17.5861 6.37483 17.2833 6.37483 16.9103V16.0695C6.37483 15.8449 6.55633 15.6643 6.78197 15.6643C7.00762 15.6643 7.18911 15.8459 7.18911 16.0695V16.7746H12.8096V16.0695C12.8096 15.8449 12.9911 15.6643 13.2168 15.6643C13.4424 15.6643 13.6239 15.8459 13.6239 16.0695V16.9103H13.6249Z" fill="white"/>
</svg>
