<svg width="24" height="28" viewBox="0 0 24 28" fill="none" xmlns="http://www.w3.org/2000/svg">
<path d="M8.2105 24.8891C5.48735 24.8891 3.27268 22.7839 3.27268 20.195V4.19304C1.42361 4.45749 0 5.9729 0 7.80334V23.8517C0 26.1385 1.95816 28 4.36357 28H15.7905C17.716 28 19.31 26.6466 19.5882 24.8888L8.2105 24.8891Z" fill="url(#paint0_linear_103_340)"/>
<path d="M17.4543 7.25943C16.8516 7.25943 16.3634 6.79536 16.3634 6.22237V0H8.21051C6.08873 0 4.36359 1.64115 4.36359 3.65709V20.1957C4.36359 22.2127 6.08992 23.8528 8.21051 23.8528H20.1531C22.2749 23.8528 24 22.2116 24 20.1957V7.25976L17.4543 7.25943ZM16.6061 19.7042H9.81816C9.21542 19.7042 8.72726 19.2401 8.72726 18.6671C8.72726 18.0941 9.21542 17.63 9.81816 17.63H16.6061C17.2089 17.63 17.697 18.0941 17.697 18.6671C17.697 19.2401 17.2089 19.7042 16.6061 19.7042ZM18.5452 15.5559H9.81805C9.21532 15.5559 8.72716 15.0919 8.72716 14.5189C8.72716 13.9459 9.21532 13.4818 9.81805 13.4818H18.5452C19.1479 13.4818 19.6361 13.9459 19.6361 14.5189C19.6361 15.0919 19.1479 15.5559 18.5452 15.5559ZM18.5452 11.4077H9.81805C9.21532 11.4077 8.72716 10.9436 8.72716 10.3706C8.72716 9.79763 9.21532 9.33356 9.81805 9.33356H18.5452C19.1479 9.33356 19.6361 9.79763 19.6361 10.3706C19.6361 10.9436 19.1479 11.4077 18.5452 11.4077Z" fill="url(#paint1_linear_103_340)"/>
<path d="M18.5452 0.660965V5.18521H23.3165L18.5452 0.660965Z" fill="url(#paint2_linear_103_340)"/>
<defs>
<linearGradient id="paint0_linear_103_340" x1="9.79412" y1="4.19304" x2="9.79412" y2="28" gradientUnits="userSpaceOnUse">
<stop stop-color="#3BE95B"/>
<stop offset="1" stop-color="#20BC9D"/>
</linearGradient>
<linearGradient id="paint1_linear_103_340" x1="14.1818" y1="0" x2="14.1818" y2="23.8528" gradientUnits="userSpaceOnUse">
<stop stop-color="#3BE95B"/>
<stop offset="1" stop-color="#20BC9D"/>
</linearGradient>
<linearGradient id="paint2_linear_103_340" x1="20.9308" y1="0.660965" x2="20.9308" y2="5.18521" gradientUnits="userSpaceOnUse">
<stop stop-color="#3BE95B"/>
<stop offset="1" stop-color="#20BC9D"/>
</linearGradient>
</defs>
</svg>
