<svg width="20" height="20" viewBox="0 0 20 20" fill="none" xmlns="http://www.w3.org/2000/svg">
<path d="M9.99916 0C4.48189 0 0 4.48358 0 10.0008C0 15.5181 4.48189 20 9.99916 20C15.5164 20 20 15.5181 20 10.0008C20 4.48358 15.5164 0 9.99916 0ZM14.3947 5.46295C14.7615 5.46295 15.1267 5.60111 15.4038 5.87743C15.9572 6.43088 15.9572 7.34455 15.4038 7.89882L9.34379 13.9588C8.79034 14.5123 7.87585 14.5123 7.3224 13.9588L4.62914 11.2647C4.07568 10.7113 4.07568 9.79926 4.62914 9.24497C5.18259 8.69152 6.09459 8.69152 6.64888 9.24497L8.33227 10.9292L13.3841 5.87823C13.6612 5.60027 14.028 5.46295 14.3947 5.46295Z" fill="#417F33"/>
</svg>
