<svg width="30" height="30" viewBox="0 0 30 30" fill="none" xmlns="http://www.w3.org/2000/svg">
<path d="M29.1969 14.6785C30.8211 11.0812 29.828 5.61661 27.5937 3.1523C26.5903 7.85558 19.232 11.9319 19.232 11.9319C19.232 11.9319 19.7337 10.5209 19.0649 10.8345C18.3961 11.1482 17.5598 10.5209 18.2286 9.1099C18.8975 7.69892 20.7371 8.95324 20.7371 8.95324L21.2388 8.48291C21.7405 7.85591 20.0683 7.38559 20.57 7.07192C21.0717 6.75826 22.4097 7.54225 22.4097 7.54225C22.4097 7.54225 22.5768 7.54225 22.7442 6.60159C22.9117 5.66094 20.9046 6.13127 21.2392 4.87695C21.5737 3.62263 21.4063 4.06396 19.567 3.90729C17.7277 3.75063 18.5636 5.60261 18.5636 5.60261H18.3965C17.0585 5.60261 16.7243 3.75029 17.3931 2.49597C18.0619 1.24165 15.7209 1.56165 15.7209 1.56165L15.0514 0H14.949L14.2802 1.34099C14.2802 1.34099 11.9388 1.51198 12.608 2.7663C13.2771 4.02062 12.9426 5.60261 11.6046 5.60261H11.4375C11.4375 5.60261 12.2738 3.75029 10.4341 3.90729C8.59444 4.06429 8.42733 3.84362 8.76191 5.09761C9.09649 6.35193 7.08972 5.77127 7.25683 6.71193C7.42394 7.65258 7.59141 7.59758 7.59141 7.59758C7.59141 7.59758 8.92938 6.78626 9.43107 7.09959C9.93276 7.41292 8.26057 7.86958 8.76226 8.49691L9.26396 8.96024C9.26396 8.96024 11.1036 7.70258 11.7724 9.11357C12.4412 10.5246 11.6053 11.1499 10.9361 10.8365C10.267 10.5232 10.769 11.9332 10.769 11.9332C10.769 11.9332 3.40969 7.85625 2.40631 3.15263C0.171978 5.61694 -0.821096 11.0812 0.803094 14.6785C0.344423 14.8062 -0.214514 15.1192 0.566647 15.8515C1.73715 16.9488 2.07173 16.9488 2.74053 18.5168C3.40934 20.0848 4.58019 22.9068 4.91441 23.3771C4.94641 23.4221 4.98446 23.4887 5.02784 23.5724C4.45397 24.0097 4.2225 24.7887 5.08188 25.4151C5.37735 25.6304 5.69202 25.7237 6.01487 25.7381C6.29113 26.3057 6.56029 26.7654 6.75443 26.826C7.15016 26.9497 7.43994 26.2917 7.29914 25.4701C8.20119 25.1147 9.0492 24.5454 9.59747 24.6311C10.6009 24.7877 7.92528 26.1987 9.09578 27.61C10.2417 28.9914 13.7909 28.871 14.8807 29.8953C14.9163 29.9753 14.9561 30.011 15.0002 29.997C15.0443 30.011 15.0837 29.9757 15.1196 29.8953C16.2094 28.871 19.7586 28.9917 20.9046 27.61C22.0751 26.199 19.3995 24.7881 20.4029 24.6311C20.9512 24.5454 21.7992 25.1147 22.7012 25.4701C22.5604 26.292 22.8502 26.9497 23.2459 26.826C23.4401 26.7654 23.7092 26.3057 23.9855 25.7381C24.308 25.7241 24.623 25.6304 24.9185 25.4151C25.7775 24.7887 25.5464 24.0094 24.9725 23.5721C25.0155 23.4884 25.0539 23.4217 25.0859 23.3767C25.4205 22.9064 26.591 20.0844 27.2598 18.5165C27.9286 16.9485 28.2632 16.9488 29.4337 15.8512C30.2145 15.1192 29.6556 14.8062 29.1969 14.6785ZM8.2595 20.0844C4.91477 21.8091 9.43 23.5337 9.43 23.5337C9.43 23.5337 7.75781 24.0041 6.58696 23.3771C6.48278 23.3214 6.37327 23.2837 6.26127 23.2607C5.32011 21.5904 3.80009 18.9775 2.6776 17.0571C2.69929 17.0728 2.71884 17.0905 2.74053 17.1058C6.75407 19.9278 10.0988 18.2031 10.4334 17.2625C10.768 16.3218 11.6042 18.3601 8.2595 20.0844ZM16.5565 6.0236C16.3893 6.96426 15.0514 9.44823 15.0514 9.44823C15.0514 9.44823 13.6114 7.00659 13.4439 6.06593C13.2764 5.12528 14.2802 5.60261 14.6144 5.60261C14.7271 5.60261 15.2729 5.60261 15.3856 5.60261C15.7202 5.60261 16.7236 5.08294 16.5565 6.0236ZM23.7387 23.2604C23.6267 23.2834 23.5172 23.3211 23.413 23.3767C22.2425 24.0037 20.57 23.5334 20.57 23.5334C20.57 23.5334 25.0852 21.8088 21.7405 20.0841C18.3958 18.3595 19.232 16.3215 19.5666 17.2621C19.9012 18.2028 23.2459 19.9275 27.2595 17.1055C27.2812 17.0901 27.3011 17.0725 27.3224 17.0568C26.1999 18.9771 24.6799 21.5901 23.7387 23.2604Z" fill="white"/>
</svg>
