<svg width="29" height="28" viewBox="0 0 29 28" fill="none" xmlns="http://www.w3.org/2000/svg">
<path fill-rule="evenodd" clip-rule="evenodd" d="M22.0539 7.88555C23.6078 8.61598 25.0475 9.29277 26.0754 9.96974C27.1162 10.6553 28.5967 11.8938 28.5989 13.9683C28.6013 16.0429 27.1237 17.2845 26.0843 17.9723C25.0581 18.6514 23.6198 19.3311 22.0676 20.065L8.32038 26.5656C7.37205 27.0143 6.39643 27.4761 5.56632 27.7318C4.70111 27.9982 3.08103 28.3339 1.59775 27.2616C0.114496 26.1893 -0.0154931 24.5885 0.00126553 23.7086C0.0173442 22.8645 0.195711 21.8264 0.369091 20.8173L0.908455 17.672C1.09648 16.5754 1.19049 16.0271 1.58685 15.7015C1.9832 15.3759 2.55659 15.3759 3.70335 15.3759H14.3319C15.1143 15.3759 15.7485 14.7612 15.7485 14.0028C15.7485 13.2444 15.1143 12.6296 14.3319 12.6296H3.71122C2.56543 12.6296 1.99254 12.6296 1.59631 12.3045C1.20008 11.9792 1.10563 11.4316 0.916756 10.3361L0.372845 7.18165C0.198771 6.17424 0.0196392 5.13744 0.00280972 4.29404C-0.014728 3.41444 0.113929 1.81534 1.59403 0.741895C3.07411 -0.331536 4.69311 7.93906e-05 5.55872 0.264616C6.38871 0.518264 7.36429 0.977431 8.31223 1.42358L22.0539 7.88555Z" fill="white"/>
</svg>
