<svg width="20" height="20" viewBox="0 0 20 20" fill="none" xmlns="http://www.w3.org/2000/svg">
<g clip-path="url(#clip0_25_1925)">
<path d="M16.5625 2.5H13.125V1.875C13.125 0.839453 12.2855 0 11.25 0H8.75C7.71445 0 6.875 0.839453 6.875 1.875V2.5H3.4375C2.57457 2.5 1.875 3.19957 1.875 4.0625V5.3125C1.875 5.6577 2.1548 5.9375 2.5 5.9375H17.5C17.8452 5.9375 18.125 5.6577 18.125 5.3125V4.0625C18.125 3.19957 17.4254 2.5 16.5625 2.5ZM8.125 1.875C8.125 1.53047 8.40547 1.25 8.75 1.25H11.25C11.5945 1.25 11.875 1.53047 11.875 1.875V2.5H8.125V1.875Z" fill="white"/>
<path d="M3.06054 7.60416C2.94902 7.60416 2.86015 7.69736 2.86546 7.80877L3.38109 18.6307C3.42874 19.6323 4.2514 20.4167 5.25374 20.4167H14.7451C15.7475 20.4167 16.5701 19.6323 16.6178 18.6307L17.1334 7.80877C17.1387 7.69736 17.0499 7.60416 16.9383 7.60416H3.06054ZM12.4994 9.16666C12.4994 8.82134 12.7791 8.54166 13.1244 8.54166C13.4698 8.54166 13.7494 8.82134 13.7494 9.16666V17.2917C13.7494 17.637 13.4698 17.9167 13.1244 17.9167C12.7791 17.9167 12.4994 17.637 12.4994 17.2917V9.16666ZM9.37444 9.16666C9.37444 8.82134 9.65413 8.54166 9.99944 8.54166C10.3448 8.54166 10.6244 8.82134 10.6244 9.16666V17.2917C10.6244 17.637 10.3448 17.9167 9.99944 17.9167C9.65413 17.9167 9.37444 17.637 9.37444 17.2917V9.16666ZM6.24944 9.16666C6.24944 8.82134 6.52913 8.54166 6.87444 8.54166C7.21976 8.54166 7.49944 8.82134 7.49944 9.16666V17.2917C7.49944 17.637 7.21976 17.9167 6.87444 17.9167C6.52913 17.9167 6.24944 17.637 6.24944 17.2917V9.16666Z" fill="white"/>
</g>
<defs>
<clipPath id="clip0_25_1925">
<rect width="20" height="20" fill="white"/>
</clipPath>
</defs>
</svg>
