<svg width="20" height="20" viewBox="0 0 20 20" fill="none" xmlns="http://www.w3.org/2000/svg">
<path d="M18.2939 1.66773C17.8632 1.68227 17.4543 1.89046 17.1538 2.24821C16.7797 2.68172 14.3035 5.63103 11.747 8.67356C9.67128 11.1438 8.20868 12.8816 7.38526 13.8579L2.74716 9.76447C2.57593 9.59181 2.37594 9.46172 2.15957 9.38225C1.9432 9.30279 1.71505 9.27564 1.48926 9.30248C1.26346 9.32932 1.04482 9.40957 0.846879 9.53828C0.648935 9.66699 0.475898 9.8414 0.338481 10.0507C0.201064 10.2601 0.102192 10.4999 0.0479865 10.7553C-0.00621884 11.0107 -0.0146036 11.2763 0.023351 11.5356C0.0613057 11.7949 0.144792 12.0424 0.268641 12.2628C0.39249 12.4832 0.554066 12.6719 0.743364 12.817L6.54747 17.9413C6.86668 18.2227 7.26309 18.3605 7.66328 18.3292C8.06346 18.2979 8.4403 18.0997 8.724 17.7711C9.09811 17.3376 11.5742 14.3983 14.1308 11.3558C16.6874 8.31325 19.3244 5.16751 19.5031 4.96049C19.741 4.6899 19.9031 4.34246 19.9682 3.96352C20.0332 3.58459 19.9981 3.19174 19.8676 2.83624C19.737 2.48073 19.517 2.17908 19.2363 1.97063C18.9556 1.76219 18.6271 1.65662 18.2939 1.66773Z" fill="white"/>
</svg>
