<svg width="60" height="60" viewBox="0 0 60 60" fill="none" xmlns="http://www.w3.org/2000/svg">
<path d="M46.9086 7.00667C42.6236 6.01529 38.4726 4.53399 34.5415 2.59333C33.1037 1.87333 31.7001 1.08 30.3373 0.233333L30.0034 0C28.6406 0.706667 27.2165 1.39333 25.7992 2.04667C22.8267 3.42844 19.7733 4.63721 16.655 5.66667C14.1776 6.48259 11.6518 7.15049 9.09161 7.66667C7.5176 7.98 5.92997 8.22667 4.32189 8.42667C3.87899 8.48 3.4429 8.52667 3 8.56667C3 11.3533 3 14.1267 3.16353 16.9067C3.28618 19.1067 3.47016 21.3 3.74271 23.4867C3.94032 25.1733 4.19924 26.86 4.50587 28.5267C4.76479 29.9467 5.07142 31.3467 5.41893 32.7467C5.67104 33.7533 5.9436 34.7467 6.24341 35.74C8.13767 41.94 11.129 47.98 15.8714 52.5733C16.6703 53.3472 17.5144 54.075 18.3994 54.7533C19.6199 55.6828 20.9167 56.5123 22.2765 57.2333C23.6585 57.9647 25.1014 58.5802 26.5897 59.0733C27.4278 59.3533 28.2795 59.5867 29.138 59.8C29.5741 59.9067 29.5741 59.9067 30.0102 60C30.6916 59.8533 31.373 59.6867 32.0544 59.4867C33.3608 59.0925 34.6323 58.5953 35.8565 58C36.9595 57.4745 38.0228 56.873 39.0386 56.2C39.72 55.7467 40.4014 55.26 41.0146 54.7533C46.0569 50.7533 49.5184 45.1 51.876 39.2267C52.3302 38.1422 52.7322 37.0422 53.082 35.9267C53.5249 34.5933 53.9201 33.26 54.2676 31.9267C54.731 30.16 55.1194 28.3733 55.4533 26.5933C55.8757 24.32 56.196 22.0267 56.4413 19.7267C56.7615 16.6667 56.9319 13.5867 57 10.5133V8.58667C53.6002 8.31029 50.2268 7.78211 46.9086 7.00667ZM39.8086 25.8533C36.2586 29.34 32.3133 33.4933 28.6951 37.06L27.4005 38.3333L25.9832 37.1933L20.2323 32.58L18.6992 31.3333L21.268 28.28L22.8216 29.5333L27.1211 32.9933C30.3305 29.7933 33.7306 26.2333 36.9468 23.08L38.3777 21.68L41.2395 24.4667L39.8086 25.8533Z" fill="url(#paint0_linear_25_1236)"/>
<defs>
<linearGradient id="paint0_linear_25_1236" x1="30" y1="0" x2="30" y2="60" gradientUnits="userSpaceOnUse">
<stop stop-color="#41DEF6"/>
<stop offset="1" stop-color="#2285DF"/>
</linearGradient>
</defs>
</svg>
