<svg width="30" height="30" viewBox="0 0 30 30" fill="none" xmlns="http://www.w3.org/2000/svg">
<path d="M23.4543 3.50333C21.3118 3.00764 19.2363 2.267 17.2707 1.29667C16.5519 0.936667 15.85 0.54 15.1686 0.116667L15.0017 0C14.3203 0.353333 13.6083 0.696667 12.8996 1.02333C11.4133 1.71422 9.88664 2.3186 8.32751 2.83333C7.0888 3.24129 5.82591 3.57524 4.5458 3.83333C3.7588 3.99 2.96498 4.11333 2.16095 4.21333C1.9395 4.24 1.72145 4.26333 1.5 4.28333C1.5 5.67667 1.5 7.06333 1.58177 8.45333C1.64309 9.55333 1.73508 10.65 1.87136 11.7433C1.97016 12.5867 2.09962 13.43 2.25293 14.2633C2.3824 14.9733 2.53571 15.6733 2.70946 16.3733C2.83552 16.8767 2.9718 17.3733 3.1217 17.87C4.06883 20.97 5.56448 23.99 7.93571 26.2867C8.33517 26.6736 8.7572 27.0375 9.19969 27.3767C9.80996 27.8414 10.4583 28.2561 11.1382 28.6167C11.8293 28.9824 12.5507 29.2901 13.2948 29.5367C13.7139 29.6767 14.1397 29.7933 14.569 29.9C14.7871 29.9533 14.7871 29.9533 15.0051 30C15.3458 29.9267 15.6865 29.8433 16.0272 29.7433C16.6804 29.5463 17.3162 29.2977 17.9283 29C18.4797 28.7373 19.0114 28.4365 19.5193 28.1C19.86 27.8733 20.2007 27.63 20.5073 27.3767C23.0285 25.3767 24.7592 22.55 25.938 19.6133C26.1651 19.0711 26.3661 18.5211 26.541 17.9633C26.7625 17.2967 26.9601 16.63 27.1338 15.9633C27.3655 15.08 27.5597 14.1867 27.7266 13.2967C27.9379 12.16 28.098 11.0133 28.2206 9.86333C28.3808 8.33333 28.4659 6.79333 28.5 5.25667V4.29333C26.8001 4.15514 25.1134 3.89105 23.4543 3.50333ZM19.9043 12.9267C18.1293 14.67 16.1567 16.7467 14.3476 18.53L13.7003 19.1667L12.9916 18.5967L10.1162 16.29L9.34959 15.6667L10.634 14.14L11.4108 14.7667L13.5606 16.4967C15.1652 14.8967 16.8653 13.1167 18.4734 11.54L19.1888 10.84L20.6197 12.2333L19.9043 12.9267Z" fill="white"/>
</svg>
