<svg width="54" height="60" viewBox="0 0 54 60" fill="none" xmlns="http://www.w3.org/2000/svg">
<path d="M43.9086 7.00667C39.6236 6.01529 35.4726 4.53399 31.5415 2.59333C30.1037 1.87333 28.7001 1.08 27.3373 0.233333L27.0034 0C25.6406 0.706667 24.2165 1.39333 22.7992 2.04667C19.8267 3.42844 16.7733 4.63721 13.655 5.66667C11.1776 6.48259 8.65182 7.15049 6.09161 7.66667C4.5176 7.98 2.92997 8.22667 1.32189 8.42667C0.87899 8.48 0.442902 8.52667 0 8.56667C0 11.3533 -1.52302e-07 14.1267 0.163533 16.9067C0.286183 19.1067 0.470158 21.3 0.742713 23.4867C0.940316 25.1733 1.19924 26.86 1.50587 28.5267C1.76479 29.9467 2.07142 31.3467 2.41893 32.7467C2.67104 33.7533 2.9436 34.7467 3.24341 35.74C5.13767 41.94 8.12896 47.98 12.8714 52.5733C13.6703 53.3472 14.5144 54.075 15.3994 54.7533C16.6199 55.6828 17.9167 56.5123 19.2765 57.2333C20.6585 57.9647 22.1014 58.5802 23.5897 59.0733C24.4278 59.3533 25.2795 59.5867 26.138 59.8C26.5741 59.9067 26.5741 59.9067 27.0102 60C27.6916 59.8533 28.373 59.6867 29.0544 59.4867C30.3608 59.0925 31.6323 58.5953 32.8565 58C33.9595 57.4745 35.0228 56.873 36.0386 56.2C36.72 55.7467 37.4014 55.26 38.0146 54.7533C43.0569 50.7533 46.5184 45.1 48.876 39.2267C49.3302 38.1422 49.7322 37.0422 50.082 35.9267C50.5249 34.5933 50.9201 33.26 51.2676 31.9267C51.731 30.16 52.1194 28.3733 52.4533 26.5933C52.8757 24.32 53.196 22.0267 53.4413 19.7267C53.7615 16.6667 53.9319 13.5867 54 10.5133V8.58667C50.6002 8.31029 47.2268 7.78211 43.9086 7.00667ZM36.8086 25.8533C33.2586 29.34 29.3133 33.4933 25.6951 37.06L24.4005 38.3333L22.9832 37.1933L17.2323 32.58L15.6992 31.3333L18.268 28.28L19.8216 29.5333L24.1211 32.9933C27.3305 29.7933 30.7306 26.2333 33.9468 23.08L35.3777 21.68L38.2395 24.4667L36.8086 25.8533Z" fill="url(#paint0_linear_25_1237)"/>
<defs>
<linearGradient id="paint0_linear_25_1237" x1="27" y1="0" x2="27" y2="60" gradientUnits="userSpaceOnUse">
<stop stop-color="#41DEF6"/>
<stop offset="1" stop-color="#2285DF"/>
</linearGradient>
</defs>
</svg>
