<svg width="26" height="24" viewBox="0 0 26 24" fill="none" xmlns="http://www.w3.org/2000/svg">
<path fill-rule="evenodd" clip-rule="evenodd" d="M18.5943 3.19034C16.0554 -1.06346 9.94462 -1.06344 7.4057 3.19036L0.950753 14.0052C-1.69646 18.4404 1.51078 24 6.54503 24H19.455C24.4892 24 27.6964 18.4404 25.0493 14.0052L18.5943 3.19034ZM13 8C13.7176 8 14.2993 8.59696 14.2993 9.33333V13.3333C14.2993 14.0697 13.7176 14.6667 13 14.6667C12.2822 14.6667 11.7005 14.0697 11.7005 13.3333V9.33333C11.7005 8.59696 12.2822 8 13 8ZM13 18.6667C13.7176 18.6667 14.2993 18.0697 14.2993 17.3333C14.2993 16.5969 13.7176 16 13 16C12.2822 16 11.7005 16.5969 11.7005 17.3333C11.7005 18.0697 12.2822 18.6667 13 18.6667Z" fill="#FB4508"/>
</svg>
